<svg width="347" height="344" viewBox="0 0 347 344" fill="none" xmlns="http://www.w3.org/2000/svg">
<rect width="347" height="344" fill="black" fill-opacity="0.25"/>
<path d="M84.4533 170.6C84.4533 168.952 84.8213 167.48 85.5573 166.184C86.3093 164.872 87.3253 163.856 88.6053 163.136C89.9013 162.4 91.3493 162.032 92.9493 162.032C94.8213 162.032 96.4613 162.512 97.8693 163.472C99.2773 164.432 100.261 165.76 100.821 167.456H96.9573C96.5733 166.656 96.0293 166.056 95.3253 165.656C94.6373 165.256 93.8373 165.056 92.9253 165.056C91.9493 165.056 91.0773 165.288 90.3093 165.752C89.5573 166.2 88.9653 166.84 88.5333 167.672C88.1173 168.504 87.9093 169.48 87.9093 170.6C87.9093 171.704 88.1173 172.68 88.5333 173.528C88.9653 174.36 89.5573 175.008 90.3093 175.472C91.0773 175.92 91.9493 176.144 92.9253 176.144C93.8373 176.144 94.6373 175.944 95.3253 175.544C96.0293 175.128 96.5733 174.52 96.9573 173.72H100.821C100.261 175.432 99.2773 176.768 97.8693 177.728C96.4773 178.672 94.8373 179.144 92.9493 179.144C91.3493 179.144 89.9013 178.784 88.6053 178.064C87.3253 177.328 86.3093 176.312 85.5573 175.016C84.8213 173.72 84.4533 172.248 84.4533 170.6ZM107.051 161.24V179H103.691V161.24H107.051ZM116.275 179.216C114.995 179.216 113.843 178.936 112.819 178.376C111.795 177.8 110.987 176.992 110.395 175.952C109.819 174.912 109.531 173.712 109.531 172.352C109.531 170.992 109.827 169.792 110.419 168.752C111.027 167.712 111.851 166.912 112.891 166.352C113.931 165.776 115.091 165.488 116.371 165.488C117.651 165.488 118.811 165.776 119.851 166.352C120.891 166.912 121.707 167.712 122.299 168.752C122.907 169.792 123.211 170.992 123.211 172.352C123.211 173.712 122.899 174.912 122.275 175.952C121.667 176.992 120.835 177.8 119.779 178.376C118.739 178.936 117.571 179.216 116.275 179.216ZM116.275 176.288C116.883 176.288 117.451 176.144 117.979 175.856C118.523 175.552 118.955 175.104 119.275 174.512C119.595 173.92 119.755 173.2 119.755 172.352C119.755 171.088 119.419 170.12 118.747 169.448C118.091 168.76 117.283 168.416 116.323 168.416C115.363 168.416 114.555 168.76 113.899 169.448C113.259 170.12 112.939 171.088 112.939 172.352C112.939 173.616 113.251 174.592 113.875 175.28C114.515 175.952 115.315 176.288 116.275 176.288ZM138.228 165.704V179H134.844V177.32C134.412 177.896 133.844 178.352 133.14 178.688C132.452 179.008 131.7 179.168 130.884 179.168C129.844 179.168 128.924 178.952 128.124 178.52C127.324 178.072 126.692 177.424 126.228 176.576C125.78 175.712 125.556 174.688 125.556 173.504V165.704H128.916V173.024C128.916 174.08 129.18 174.896 129.708 175.472C130.236 176.032 130.956 176.312 131.868 176.312C132.796 176.312 133.524 176.032 134.052 175.472C134.58 174.896 134.844 174.08 134.844 173.024V165.704H138.228ZM140.679 172.304C140.679 170.96 140.943 169.768 141.471 168.728C142.015 167.688 142.751 166.888 143.679 166.328C144.607 165.768 145.639 165.488 146.775 165.488C147.639 165.488 148.463 165.68 149.247 166.064C150.031 166.432 150.655 166.928 151.119 167.552V161.24H154.527V179H151.119V177.032C150.703 177.688 150.119 178.216 149.367 178.616C148.615 179.016 147.743 179.216 146.751 179.216C145.631 179.216 144.607 178.928 143.679 178.352C142.751 177.776 142.015 176.968 141.471 175.928C140.943 174.872 140.679 173.664 140.679 172.304ZM151.143 172.352C151.143 171.536 150.983 170.84 150.663 170.264C150.343 169.672 149.911 169.224 149.367 168.92C148.823 168.6 148.239 168.44 147.615 168.44C146.991 168.44 146.415 168.592 145.887 168.896C145.359 169.2 144.927 169.648 144.591 170.24C144.271 170.816 144.111 171.504 144.111 172.304C144.111 173.104 144.271 173.808 144.591 174.416C144.927 175.008 145.359 175.464 145.887 175.784C146.431 176.104 147.007 176.264 147.615 176.264C148.239 176.264 148.823 176.112 149.367 175.808C149.911 175.488 150.343 175.04 150.663 174.464C150.983 173.872 151.143 173.168 151.143 172.352ZM169.311 179.168C168.143 179.168 167.087 178.968 166.143 178.568C165.215 178.168 164.479 177.592 163.935 176.84C163.391 176.088 163.111 175.2 163.095 174.176H166.695C166.743 174.864 166.983 175.408 167.415 175.808C167.863 176.208 168.471 176.408 169.239 176.408C170.023 176.408 170.639 176.224 171.087 175.856C171.535 175.472 171.759 174.976 171.759 174.368C171.759 173.872 171.607 173.464 171.303 173.144C170.999 172.824 170.615 172.576 170.151 172.4C169.703 172.208 169.079 172 168.279 171.776C167.191 171.456 166.303 171.144 165.615 170.84C164.943 170.52 164.359 170.048 163.863 169.424C163.383 168.784 163.143 167.936 163.143 166.88C163.143 165.888 163.391 165.024 163.887 164.288C164.383 163.552 165.079 162.992 165.975 162.608C166.871 162.208 167.895 162.008 169.047 162.008C170.775 162.008 172.175 162.432 173.247 163.28C174.335 164.112 174.935 165.28 175.047 166.784H171.351C171.319 166.208 171.071 165.736 170.607 165.368C170.159 164.984 169.559 164.792 168.807 164.792C168.151 164.792 167.623 164.96 167.223 165.296C166.839 165.632 166.647 166.12 166.647 166.76C166.647 167.208 166.791 167.584 167.079 167.888C167.383 168.176 167.751 168.416 168.183 168.608C168.631 168.784 169.255 168.992 170.055 169.232C171.143 169.552 172.031 169.872 172.719 170.192C173.407 170.512 173.999 170.992 174.495 171.632C174.991 172.272 175.239 173.112 175.239 174.152C175.239 175.048 175.007 175.88 174.543 176.648C174.079 177.416 173.399 178.032 172.503 178.496C171.607 178.944 170.543 179.168 169.311 179.168ZM190.512 172.064C190.512 172.544 190.48 172.976 190.416 173.36H180.696C180.776 174.32 181.112 175.072 181.704 175.616C182.296 176.16 183.024 176.432 183.888 176.432C185.136 176.432 186.024 175.896 186.552 174.824H190.176C189.792 176.104 189.056 177.16 187.968 177.992C186.88 178.808 185.544 179.216 183.96 179.216C182.68 179.216 181.528 178.936 180.504 178.376C179.496 177.8 178.704 176.992 178.128 175.952C177.568 174.912 177.288 173.712 177.288 172.352C177.288 170.976 177.568 169.768 178.128 168.728C178.688 167.688 179.472 166.888 180.48 166.328C181.488 165.768 182.648 165.488 183.96 165.488C185.224 165.488 186.352 165.76 187.344 166.304C188.352 166.848 189.128 167.624 189.672 168.632C190.232 169.624 190.512 170.768 190.512 172.064ZM187.032 171.104C187.016 170.24 186.704 169.552 186.096 169.04C185.488 168.512 184.744 168.248 183.864 168.248C183.032 168.248 182.328 168.504 181.752 169.016C181.192 169.512 180.848 170.208 180.72 171.104H187.032ZM196.325 167.768C196.757 167.064 197.317 166.512 198.005 166.112C198.709 165.712 199.509 165.512 200.405 165.512V169.04H199.517C198.461 169.04 197.661 169.288 197.117 169.784C196.589 170.28 196.325 171.144 196.325 172.376V179H192.965V165.704H196.325V167.768ZM208.212 175.904L211.572 165.704H215.148L210.228 179H206.148L201.252 165.704H204.852L208.212 175.904ZM218.739 164.12C218.147 164.12 217.651 163.936 217.251 163.568C216.867 163.184 216.675 162.712 216.675 162.152C216.675 161.592 216.867 161.128 217.251 160.76C217.651 160.376 218.147 160.184 218.739 160.184C219.331 160.184 219.819 160.376 220.203 160.76C220.603 161.128 220.803 161.592 220.803 162.152C220.803 162.712 220.603 163.184 220.203 163.568C219.819 163.936 219.331 164.12 218.739 164.12ZM220.395 165.704V179H217.035V165.704H220.395ZM222.851 172.352C222.851 170.976 223.131 169.776 223.691 168.752C224.251 167.712 225.027 166.912 226.019 166.352C227.011 165.776 228.147 165.488 229.427 165.488C231.075 165.488 232.435 165.904 233.507 166.736C234.595 167.552 235.323 168.704 235.691 170.192H232.067C231.875 169.616 231.547 169.168 231.083 168.848C230.635 168.512 230.075 168.344 229.403 168.344C228.443 168.344 227.683 168.696 227.123 169.4C226.563 170.088 226.283 171.072 226.283 172.352C226.283 173.616 226.563 174.6 227.123 175.304C227.683 175.992 228.443 176.336 229.403 176.336C230.763 176.336 231.651 175.728 232.067 174.512H235.691C235.323 175.952 234.595 177.096 233.507 177.944C232.419 178.792 231.059 179.216 229.427 179.216C228.147 179.216 227.011 178.936 226.019 178.376C225.027 177.8 224.251 177 223.691 175.976C223.131 174.936 222.851 173.728 222.851 172.352ZM250.512 172.064C250.512 172.544 250.48 172.976 250.416 173.36H240.696C240.776 174.32 241.112 175.072 241.704 175.616C242.296 176.16 243.024 176.432 243.888 176.432C245.136 176.432 246.024 175.896 246.552 174.824H250.176C249.792 176.104 249.056 177.16 247.968 177.992C246.88 178.808 245.544 179.216 243.96 179.216C242.68 179.216 241.528 178.936 240.504 178.376C239.496 177.8 238.704 176.992 238.128 175.952C237.568 174.912 237.288 173.712 237.288 172.352C237.288 170.976 237.568 169.768 238.128 168.728C238.688 167.688 239.472 166.888 240.48 166.328C241.488 165.768 242.648 165.488 243.96 165.488C245.224 165.488 246.352 165.76 247.344 166.304C248.352 166.848 249.128 167.624 249.672 168.632C250.232 169.624 250.512 170.768 250.512 172.064ZM247.032 171.104C247.016 170.24 246.704 169.552 246.096 169.04C245.488 168.512 244.744 168.248 243.864 168.248C243.032 168.248 242.328 168.504 241.752 169.016C241.192 169.512 240.848 170.208 240.72 171.104H247.032ZM258.053 179.216C256.965 179.216 255.989 179.024 255.125 178.64C254.261 178.24 253.573 177.704 253.061 177.032C252.565 176.36 252.293 175.616 252.245 174.8H255.629C255.693 175.312 255.941 175.736 256.373 176.072C256.821 176.408 257.373 176.576 258.029 176.576C258.669 176.576 259.165 176.448 259.517 176.192C259.885 175.936 260.069 175.608 260.069 175.208C260.069 174.776 259.845 174.456 259.397 174.248C258.965 174.024 258.269 173.784 257.309 173.528C256.317 173.288 255.501 173.04 254.861 172.784C254.237 172.528 253.693 172.136 253.229 171.608C252.781 171.08 252.557 170.368 252.557 169.472C252.557 168.736 252.765 168.064 253.181 167.456C253.613 166.848 254.221 166.368 255.005 166.016C255.805 165.664 256.741 165.488 257.813 165.488C259.397 165.488 260.661 165.888 261.605 166.688C262.549 167.472 263.069 168.536 263.165 169.88H259.949C259.901 169.352 259.677 168.936 259.277 168.632C258.893 168.312 258.373 168.152 257.717 168.152C257.109 168.152 256.637 168.264 256.301 168.488C255.981 168.712 255.821 169.024 255.821 169.424C255.821 169.872 256.045 170.216 256.493 170.456C256.941 170.68 257.637 170.912 258.581 171.152C259.541 171.392 260.333 171.64 260.957 171.896C261.581 172.152 262.117 172.552 262.565 173.096C263.029 173.624 263.269 174.328 263.285 175.208C263.285 175.976 263.069 176.664 262.637 177.272C262.221 177.88 261.613 178.36 260.813 178.712C260.029 179.048 259.109 179.216 258.053 179.216Z" fill="white"/>
</svg>
